<svg width="40px" height="40px" viewBox="0 0 40 40" version="1.1" xmlns="http://www.w3.org/2000/svg" xmlns:xlink="http://www.w3.org/1999/xlink">
    <desc>Created by a designer.</desc>
    <defs></defs>
    <g id="Page-1" stroke="none" stroke-width="1" fill="none" fill-rule="evenodd">
        <g id="Search-button">
            <rect id="Hit-area" fill="#005EA5" x="0" y="0" width="40" height="40"></rect>
            <path d="M22.5760127,22.2488839 C23.6563752,21.1685214 24.1965484,19.8712873 24.1965484,18.3571429 C24.1965484,16.8429984 23.6584214,15.5478104 22.5821511,14.4715402 C21.5058808,13.3952699 20.2106929,12.8571429 18.6965484,12.8571429 C17.1824039,12.8571429 15.887216,13.3952699 14.8109457,14.4715402 C13.7346755,15.5478104 13.1965484,16.8429984 13.1965484,18.3571429 C13.1965484,19.8712873 13.7346755,21.1664753 14.8109457,22.2427455 C15.887216,23.3190158 17.1824039,23.8571429 18.6965484,23.8571429 C20.2106929,23.8571429 21.5038347,23.3210619 22.5760127,22.2488839 Z M30.4822627,28.5714286 C30.4822627,28.9970259 30.3267583,29.3653258 30.0157448,29.6763393 C29.7047314,29.9873527 29.3364315,30.1428571 28.9108341,30.1428571 C28.4688676,30.1428571 28.1005677,29.9873527 27.8059234,29.6763393 L23.5949859,25.4776786 C22.1299488,26.4925646 20.4971527,27 18.6965484,27 C17.5261557,27 16.4069332,26.7728817 15.3388475,26.3186384 C14.2707618,25.8643951 13.3500121,25.2505619 12.5765707,24.4771205 C11.8031294,23.7036792 11.1892962,22.7829294 10.7350529,21.7148438 C10.2808095,20.6467581 10.0536913,19.5275356 10.0536913,18.3571429 C10.0536913,17.1867501 10.2808095,16.0675277 10.7350529,14.999442 C11.1892962,13.9313563 11.8031294,13.0106065 12.5765707,12.2371652 C13.3500121,11.4637238 14.2707618,10.8498907 15.3388475,10.3956473 C16.4069332,9.94140398 17.5261557,9.71428571 18.6965484,9.71428571 C19.8669412,9.71428571 20.9861636,9.94140398 22.0542493,10.3956473 C23.122335,10.8498907 24.0430847,11.4637238 24.8165261,12.2371652 C25.5899675,13.0106065 26.2038006,13.9313563 26.658044,14.999442 C27.1122873,16.0675277 27.3394056,17.1867501 27.3394056,18.3571429 C27.3394056,20.1577471 26.8319702,21.7905433 25.8170841,23.2555804 L30.0280216,27.4665179 C30.3308505,27.7693468 30.4822627,28.1376466 30.4822627,28.5714286 Z" id="search-icon" fill="#FFFFFF"></path>
        </g>
    </g>
</svg>