<svg width="25px" height="30px" viewBox="0 0 25 30" version="1.1" xmlns="http://www.w3.org/2000/svg" xmlns:xlink="http://www.w3.org/1999/xlink">
    <desc>Created by a designer.</desc>
    <defs></defs>
    <g id="Page-1" stroke="none" stroke-width="1" fill="none" fill-rule="evenodd">
        <g id="lcok-icon-white" transform="translate(-3.000000, 0.000000)">
            <rect id="Rectangle" x="0" y="0" width="30" height="30"></rect>
            <path d="M9.72043011,13.6363636 L20.4731183,13.6363636 L20.4731183,9.54545455 C20.4731183,8.0397652 19.9480899,6.75426669 18.8980175,5.68892045 C17.847945,4.62357422 16.5808766,4.09090909 15.0967742,4.09090909 C13.6126718,4.09090909 12.3456034,4.62357422 11.2955309,5.68892045 C10.2454585,6.75426669 9.72043011,8.0397652 9.72043011,9.54545455 L9.72043011,13.6363636 Z M27.1935484,15.6818182 L27.1935484,27.9545455 C27.1935484,28.5227301 26.9975378,29.0056798 26.6055108,29.4034091 C26.2134837,29.8011384 25.737458,30 25.1774194,30 L5.01612903,30 C4.45609039,30 3.98006468,29.8011384 3.58803763,29.4034091 C3.19601058,29.0056798 3,28.5227301 3,27.9545455 L3,15.6818182 C3,15.1136335 3.19601058,14.6306838 3.58803763,14.2329545 C3.98006468,13.8352253 4.45609039,13.6363636 5.01612903,13.6363636 L5.68817204,13.6363636 L5.68817204,9.54545455 C5.68817204,6.93180511 6.61222194,4.68750938 8.46034946,2.8125 C10.308477,0.937490625 12.5205964,0 15.0967742,0 C17.6729519,0 19.8850714,0.937490625 21.7331989,2.8125 C23.5813264,4.68750938 24.5053763,6.93180511 24.5053763,9.54545455 L24.5053763,13.6363636 L25.1774194,13.6363636 C25.737458,13.6363636 26.2134837,13.8352253 26.6055108,14.2329545 C26.9975378,14.6306838 27.1935484,15.1136335 27.1935484,15.6818182 L27.1935484,15.6818182 Z" fill="#000000"></path>
        </g>
    </g>
</svg>