<svg width="30px" height="30px" viewBox="0 0 30 30" version="1.1" xmlns="http://www.w3.org/2000/svg" xmlns:xlink="http://www.w3.org/1999/xlink">
    <desc>Created by a designer.</desc>
    <defs></defs>
    <g id="Page-1" stroke="none" stroke-width="1" fill="none" fill-rule="evenodd">
        <path d="M15,0 C17.7213678,0 20.2311083,0.670566211 22.5292969,2.01171875 C24.8274854,3.35287129 26.6471287,5.17251455 27.9882813,7.47070313 C29.3294338,9.7688917 30,12.2786322 30,15 C30,17.7213678 29.3294338,20.2311083 27.9882813,22.5292969 C26.6471287,24.8274854 24.8274854,26.6471287 22.5292969,27.9882812 C20.2311083,29.3294338 17.7213678,30 15,30 C12.2786322,30 9.7688917,29.3294338 7.47070312,27.9882812 C5.17251455,26.6471287 3.35287129,24.8274854 2.01171875,22.5292969 C0.670566211,20.2311083 0,17.7213678 0,15 C0,12.2786322 0.670566211,9.7688917 2.01171875,7.47070313 C3.35287129,5.17251455 5.17251455,3.35287129 7.47070312,2.01171875 C9.7688917,0.670566211 12.2786322,0 15,0 L15,0 Z M17.5,24.3554688 L17.5,20.6445312 C17.5,20.4622387 17.4414068,20.3092454 17.3242188,20.1855469 C17.2070307,20.0618483 17.0638029,20 16.8945312,20 L13.1445313,20 C12.9752596,20 12.8255215,20.0651035 12.6953125,20.1953125 C12.5651035,20.3255215 12.5,20.4752596 12.5,20.6445312 L12.5,24.3554688 C12.5,24.5247404 12.5651035,24.6744785 12.6953125,24.8046875 C12.8255215,24.9348965 12.9752596,25 13.1445313,25 L16.8945312,25 C17.0638029,25 17.2070307,24.9381517 17.3242188,24.8144531 C17.4414068,24.6907546 17.5,24.5377613 17.5,24.3554688 L17.5,24.3554688 Z M17.4609375,17.6367188 L17.8125,5.5078125 C17.8125,5.35156172 17.7473965,5.23437539 17.6171875,5.15625 C17.4869785,5.05208281 17.3307301,5 17.1484375,5 L12.8515625,5 C12.6692699,5 12.5130215,5.05208281 12.3828125,5.15625 C12.2526035,5.23437539 12.1875,5.35156172 12.1875,5.5078125 L12.5195312,17.6367188 C12.5195312,17.7669277 12.5846348,17.8808589 12.7148438,17.9785156 C12.8450527,18.0761724 13.0013012,18.125 13.1835937,18.125 L16.796875,18.125 C16.9791676,18.125 17.1321608,18.0761724 17.2558594,17.9785156 C17.3795579,17.8808589 17.4479166,17.7669277 17.4609375,17.6367188 L17.4609375,17.6367188 Z" id="alert-icon-white" fill="#FFFFFF"></path>
    </g>
</svg>