<svg width="20px" height="21px" viewBox="0 0 20 21" version="1.1" xmlns="http://www.w3.org/2000/svg" xmlns:xlink="http://www.w3.org/1999/xlink">
    <desc>Created by a designer</desc>
    <defs></defs>
    <g id="Symbols" stroke="none" stroke-width="1" fill="none" fill-rule="evenodd">
        <g id="global-notification-with-icon" transform="translate(0.000000, -9.000000)" fill="#FFFFFF">
            <g id="Alert-icon---white">
                <path d="M4.90290179,11.250558 C6.41741829,10.3692292 8.06881546,9.92857143 9.85714286,9.92857143 C11.6454703,9.92857143 13.2947283,10.3692292 14.8049665,11.250558 C16.3152047,12.1318868 17.5109703,13.3276524 18.3922991,14.8378906 C19.2736279,16.3481288 19.7142857,17.9973869 19.7142857,19.7857143 C19.7142857,21.5740417 19.2736279,23.2232997 18.3922991,24.7335379 C17.5109703,26.2437762 16.3152047,27.4395417 14.8049665,28.3208705 C13.2947283,29.2021993 11.6454703,29.6428571 9.85714286,29.6428571 C8.06881546,29.6428571 6.4195574,29.2021993 4.9093192,28.3208705 C3.39908099,27.4395417 2.20331542,26.2437762 1.32198661,24.7335379 C0.440657796,23.2232997 0,21.5740417 0,19.7857143 C0,17.9973869 0.440657796,16.3481288 1.32198661,14.8378906 C2.20331542,13.3276524 3.39694187,12.1318868 4.90290179,11.250558 Z M11.5,25.9335938 L11.5,23.4949777 C11.5,23.3751854 11.4614959,23.274647 11.3844866,23.1933594 C11.3074773,23.1120718 11.2133562,23.0714286 11.1021205,23.0714286 L8.63783482,23.0714286 C8.52659915,23.0714286 8.42819983,23.1142109 8.34263393,23.1997768 C8.25706802,23.2853427 8.21428571,23.383742 8.21428571,23.4949777 L8.21428571,25.9335938 C8.21428571,26.0448294 8.25706802,26.1432287 8.34263393,26.2287946 C8.42819983,26.3143605 8.52659915,26.3571429 8.63783482,26.3571429 L11.1021205,26.3571429 C11.2133562,26.3571429 11.3074773,26.3164997 11.3844866,26.2352121 C11.4614959,26.1539244 11.5,26.053386 11.5,25.9335938 Z M11.4743304,21.5184152 L11.7053571,13.5479911 C11.7053571,13.445312 11.6625748,13.3683038 11.5770089,13.3169643 C11.491443,13.2485116 11.3887655,13.2142857 11.2689732,13.2142857 L8.4453125,13.2142857 C8.32552023,13.2142857 8.22284269,13.2485116 8.13727679,13.3169643 C8.05171088,13.3683038 8.00892857,13.445312 8.00892857,13.5479911 L8.22712054,21.5184152 C8.22712054,21.6039811 8.26990285,21.6788501 8.35546875,21.7430246 C8.44103465,21.807199 8.5437122,21.8392857 8.66350446,21.8392857 L11.0379464,21.8392857 C11.1577387,21.8392857 11.2582771,21.807199 11.3395647,21.7430246 C11.4208523,21.6788501 11.4657738,21.6039811 11.4743304,21.5184152 Z"></path>
            </g>
        </g>
    </g>
</svg>